# xmcd CD database file
#
# Track frame offsets:
#	180
#	7705
#	17236
#	27050
#	38191
#	48601
#	59776
#	70918
#	82235
#	92957
#	104817
#	116557
#	128970
#	141177
#	153563
#	167135
#	179992
#	192997
#	205934
#	206086
#	218630
#	231252
#	244407
#	257748
#
# Disc length: 3614 seconds
#
# Revision: 0
# Processed by: cddbd v1.5.1PL0 Copyright (c) Steve Scherf et al.
# Submitted via: CDex 1.51
#
DISCID=760e1c18
DTITLE=count basie - just jazz volume 1
DYEAR=1900
DGENRE=Jazz
TTITLE0=moten swing
TTITLE1=swing' brother' swing
TTITLE2=must we just be friends
TTITLE3=melody in f
TTITLE4=roseland shuffle
TTITLE5=shoit and feel it
TTITLE6=rhythm in my nursery rhymes
TTITLE7=clp hands ! here come charlie
TTITLE8=i got rythm
TTITLE9=tattersfield stomp
TTITLE10=georgianna
TTITLE11=the count steps in
TTITLE12=tickle-toe
TTITLE13=swinging the blues
TTITLE14=king porter stomp
TTITLE15=a study in brown
TTITLE16=taxi war dance
TTITLE17=good morning blues
TTITLE18=i keep remembering
TTITLE19=out the window
TTITLE20=down for double
TTITLE21=jimmy's blues
TTITLE22=how long the blues
TTITLE23=inconnu
EXTD=
EXTT0=
EXTT1=
EXTT2=
EXTT3=
EXTT4=
EXTT5=
EXTT6=
EXTT7=
EXTT8=
EXTT9=
EXTT10=
EXTT11=
EXTT12=
EXTT13=
EXTT14=
EXTT15=
EXTT16=
EXTT17=
EXTT18=
EXTT19=
EXTT20=
EXTT21=
EXTT22=
EXTT23=
PLAYORDER=
